<svg width="100" height="100" viewBox="0 0 513 496" fill="none" xmlns="http://www.w3.org/2000/svg">
<path d="M473.62 0.535004H38.394C17.223 0.535004 0.00300598 17.755 0.00300598 38.926V299.201H512.003V38.926C512.003 17.755 494.782 0.535004 473.62 0.535004ZM210.955 236.968C209.291 238.632 207.106 239.468 204.922 239.468C202.737 239.468 200.553 238.632 198.889 236.968L131.075 169.162C130.059 168.309 129.24 167.208 128.711 165.936C127.388 162.745 128.063 159.075 130.503 156.635L198.829 88.309C202.166 84.972 207.559 84.972 210.895 88.309C214.231 91.646 214.232 97.047 210.895 100.375L148.661 162.609L210.954 224.902C214.283 228.238 214.283 233.631 210.955 236.968ZM281.466 96.475L247.333 233.008C246.36 236.882 242.887 239.468 239.064 239.468C238.373 239.468 237.682 239.391 236.982 239.212C232.408 238.069 229.635 233.435 230.778 228.861L264.911 92.328C266.054 87.763 270.705 84.981 275.253 86.124C279.828 87.267 282.609 91.901 281.466 96.475ZM381.741 168.701L313.415 237.027C311.751 238.691 309.566 239.527 307.382 239.527C305.197 239.527 303.013 238.691 301.349 237.027C298.013 233.69 298.013 228.289 301.349 224.961L363.583 162.727L301.29 100.434C297.953 97.098 297.953 91.704 301.29 88.368C304.618 85.031 310.02 85.031 313.356 88.368L381.153 156.165C382.177 157.027 383.005 158.128 383.534 159.399C384.856 162.591 384.182 166.261 381.741 168.701Z" fill="url(#paint0_linear_1_3)"/>
<path d="M0 354.677C0 375.848 17.22 393.068 38.391 393.068H190.754C191.966 408.018 185.48 422.773 173.491 431.229L158.14 442.058C156.877 442.937 155.964 444.089 155.205 445.343C144.47 448.381 136.534 458.169 136.534 469.868C136.534 483.982 148.02 495.468 162.134 495.468H349.867C363.99 495.468 375.467 483.982 375.467 469.868C375.467 458.169 367.54 448.39 356.805 445.343C356.063 444.106 355.158 442.962 353.921 442.092L338.535 431.246C326.52 422.781 320.018 407.993 321.246 393.068H473.617C494.78 393.068 512 375.848 512 354.677V316.268H0V354.677ZM304.145 393.068C303.002 412.951 311.671 432.483 327.424 444.268H184.576C200.337 432.483 209.007 412.951 207.863 393.068H304.145Z" fill="url(#paint1_linear_1_3)"/>
<defs>
<linearGradient id="paint0_linear_1_3" x1="425.001" y1="107.626" x2="103.727" y2="431.79" gradientUnits="userSpaceOnUse">
<stop stop-color="#1666CE"/>
<stop offset="1" stop-color="#09EA76"/>
</linearGradient>
<linearGradient id="paint1_linear_1_3" x1="424.998" y1="380.523" x2="255.625" y2="665.349" gradientUnits="userSpaceOnUse">
<stop stop-color="#1666CE"/>
<stop offset="1" stop-color="#09EA76"/>
</linearGradient>
</defs>
</svg>
