<svg width="100" height="100" viewBox="0 0 495 487" fill="none" xmlns="http://www.w3.org/2000/svg">
<path d="M69.8822 391.639C73.4164 394.016 87.0482 400.65 98.5596 386.391L176.513 274.692L259.011 352.723C263.353 356.783 269.311 358.961 275.37 358.268C281.327 357.674 286.78 354.604 290.314 349.752L427.137 157.35L432.085 221.715C433.297 238.054 448.948 240.727 454.199 240.331C465.508 239.44 474.091 229.835 473.183 218.645L464.499 105.461C463.691 94.3707 453.795 85.9537 442.385 86.8449L326.969 95.3609C315.659 96.1531 307.076 105.857 307.985 117.047C308.793 128.138 318.587 136.456 330.099 135.663L395.734 130.811L270.321 307.073L187.621 228.845C183.279 224.686 177.22 222.606 171.263 223.299C165.204 223.893 159.751 227.062 156.318 232.013L64.5305 363.516C58.068 372.726 60.4914 385.302 69.8822 391.639V391.639Z" fill="url(#paint0_linear_1_3)"/>
<path d="M474.293 445.706H41.3059V21.0934C41.3059 9.90371 32.117 0.892578 20.7066 0.892578C9.29629 0.892578 0.107422 9.90371 0.107422 21.0934V465.907C0.107422 477.096 9.29629 486.107 20.7066 486.107H474.293C485.704 486.107 494.893 477.096 494.893 465.907C494.893 454.717 485.704 445.706 474.293 445.706Z" fill="url(#paint1_linear_1_3)"/>
<defs>
<linearGradient id="paint0_linear_1_3" x1="430.003" y1="159.326" x2="125.572" y2="484.511" gradientUnits="userSpaceOnUse">
<stop stop-color="#1666CE"/>
<stop offset="1" stop-color="#09EA76"/>
</linearGradient>
<linearGradient id="paint1_linear_1_3" x1="443" y1="115" x2="-26.9999" y2="498" gradientUnits="userSpaceOnUse">
<stop stop-color="#1666CE"/>
<stop offset="1" stop-color="#09EA76"/>
</linearGradient>
</defs>
</svg>
